<?xml version="1.0" standalone="no"?>
<!DOCTYPE svg PUBLIC "-//W3C//DTD SVG 20010904//EN"
 "http://www.w3.org/TR/2001/REC-SVG-20010904/DTD/svg10.dtd">
<svg version="1.0" xmlns="http://www.w3.org/2000/svg"
 width="6912.000000pt" height="3456.000000pt" viewBox="0 0 6912.000000 3456.000000"
 preserveAspectRatio="xMidYMid meet">

<g transform="translate(0.000000,3456.000000) scale(0.100000,-0.100000)"
fill="#000000" stroke="none">
<path d="M41145 27793 c-186 -39 -348 -101 -1255 -478 -2235 -929 -3496 -1410
-4270 -1629 -234 -66 -323 -86 -556 -126 -558 -95 -1319 -342 -2169 -703 -360
-153 -697 -314 -866 -414 -147 -87 -286 -133 -464 -152 -147 -17 -285 13 -315
68 -39 73 16 194 165 361 130 146 167 222 141 285 -35 83 -185 93 -453 30
-351 -83 -969 -340 -1228 -510 -214 -141 -1157 -1006 -1576 -1446 -296 -310
-423 -461 -537 -634 -337 -514 -1063 -1486 -1583 -2120 -336 -411 -594 -699
-825 -925 -167 -163 -288 -259 -382 -303 -75 -35 -41 -36 -762 13 -1071 73
-1351 84 -1864 77 -395 -6 -542 -17 -713 -53 -43 -9 -85 -17 -93 -18 -9 -1
-62 53 -120 119 -912 1052 -1949 2044 -2814 2694 -432 325 -761 527 -1281 788
-569 286 -796 413 -1285 718 -781 487 -1162 685 -1770 920 -524 201 -1308 426
-2090 600 l-255 56 -200 113 c-1429 808 -2694 1352 -3491 1501 -138 25 -196
49 -315 128 -122 81 -226 174 -323 292 -97 117 -131 138 -185 110 -49 -25 -65
-66 -69 -185 -9 -256 108 -563 281 -734 72 -71 285 -240 652 -516 650 -489
1086 -772 1265 -820 l45 -12 -29 -15 c-53 -28 -215 -62 -343 -73 -70 -6 -138
-15 -150 -22 -12 -6 -28 -26 -34 -45 -33 -102 164 -291 491 -468 229 -124 493
-312 1595 -1131 1045 -777 1502 -1108 1922 -1390 297 -199 552 -351 670 -397
39 -15 45 -24 101 -134 231 -462 591 -839 1031 -1082 163 -89 266 -130 631
-251 642 -212 1081 -390 1592 -646 398 -199 597 -324 793 -496 72 -63 231
-197 355 -297 580 -471 804 -682 881 -833 l19 -38 -59 -117 c-153 -307 -265
-664 -307 -983 -22 -168 -15 -465 15 -595 41 -187 99 -332 184 -463 43 -66 46
-75 56 -178 72 -676 380 -1145 859 -1304 94 -31 209 -56 218 -47 3 3 -8 31
-24 63 -49 98 -100 244 -122 354 -28 138 -25 306 8 391 20 50 89 146 98 136 2
-2 9 -39 15 -83 14 -104 62 -250 97 -296 16 -20 51 -55 80 -77 74 -59 124
-127 162 -222 42 -102 88 -153 154 -167 112 -24 197 34 255 172 55 133 96 441
88 656 -3 74 -7 146 -9 160 -4 35 79 83 196 111 139 34 374 38 524 9 177 -33
329 -95 472 -192 76 -51 550 -438 795 -649 385 -331 552 -537 563 -690 15
-200 -151 -764 -423 -1435 -40 -100 -80 -195 -89 -210 l-15 -29 -1 41 c0 64
-39 360 -61 468 -32 158 -75 278 -125 353 -25 38 -68 112 -95 166 -27 53 -66
116 -86 138 -67 74 -167 109 -316 109 -78 0 -390 -30 -384 -37 2 -2 66 -14
143 -29 175 -32 256 -67 323 -139 80 -88 90 -165 39 -309 -42 -119 -42 -183 1
-286 43 -104 58 -161 71 -265 14 -113 5 -215 -19 -215 -22 0 -137 69 -231 139
-127 94 -218 194 -322 351 -52 80 -130 184 -171 232 -204 232 -470 396 -803
493 -77 23 -544 108 -552 101 -1 -2 53 -27 120 -56 253 -110 395 -192 444
-256 l26 -34 -27 -132 c-33 -163 -31 -240 9 -323 37 -75 84 -110 266 -197 178
-85 332 -172 475 -268 105 -71 271 -197 245 -187 -8 3 -80 33 -160 67 -397
169 -757 292 -1093 375 -253 62 -357 96 -534 179 -132 60 -246 97 -365 116
-89 14 -356 8 -431 -10 -47 -12 -48 -12 -45 -48 l3 -36 95 -13 c71 -9 113 -21
166 -47 88 -44 105 -63 115 -128 19 -121 97 -225 287 -383 99 -82 242 -248
306 -353 4 -7 -32 7 -81 31 -103 52 -138 65 -295 112 -363 108 -876 363 -1103
546 -114 93 -183 134 -265 160 -74 23 -196 27 -275 9 -108 -24 -242 -109 -353
-222 l-53 -54 123 23 c155 30 377 36 423 13 l30 -15 0 -145 c0 -128 2 -149 21
-180 30 -53 72 -75 196 -105 200 -48 282 -98 340 -207 35 -67 73 -100 139
-123 68 -25 199 -29 311 -11 135 22 235 21 274 -3 32 -20 60 -71 51 -95 -15
-39 -231 -86 -491 -107 -181 -14 -493 -6 -586 15 -194 46 -527 -27 -697 -152
-35 -26 -129 -159 -119 -169 2 -2 40 12 86 32 110 47 220 75 294 75 70 -1 85
-9 114 -66 29 -57 73 -91 135 -103 30 -7 132 -10 244 -9 181 3 193 2 220 -18
15 -12 35 -39 43 -61 8 -22 23 -51 32 -65 22 -34 113 -68 181 -68 136 0 343
43 446 92 25 12 68 42 96 68 93 84 137 88 246 19 117 -73 145 -83 255 -87 80
-3 119 0 185 17 99 25 227 85 285 135 l41 35 99 -34 c330 -111 436 -274 519
-805 38 -245 76 -337 162 -387 37 -21 53 -25 103 -21 48 3 67 10 97 35 54 43
89 105 113 197 39 156 21 283 -92 621 -75 224 -132 360 -181 429 -16 23 -17
30 -6 37 8 5 20 9 28 9 41 0 258 56 331 85 l85 34 79 -75 c91 -86 184 -145
288 -181 66 -23 84 -25 179 -21 l107 5 32 -105 c73 -237 98 -467 65 -612 -51
-230 -53 -300 -11 -362 24 -36 89 -78 123 -78 40 0 41 -78 2 -186 -20 -53 -62
-101 -105 -119 l-25 -10 31 -43 c69 -95 178 -98 258 -7 75 85 191 377 212 534
13 96 7 171 -41 495 -52 358 -50 453 12 577 68 137 203 199 435 199 l91 0 5
-112 c4 -90 11 -128 33 -188 64 -172 185 -304 358 -389 119 -58 215 -85 502
-141 304 -58 395 -70 537 -70 284 0 494 89 716 304 188 182 383 475 552 830
l57 120 25 -45 c14 -24 65 -113 112 -197 120 -212 230 -390 354 -572 316 -465
552 -723 1022 -1114 322 -268 520 -447 835 -757 242 -237 321 -302 415 -339
91 -36 189 -22 245 35 l26 25 25 -57 c110 -249 147 -294 281 -343 180 -65 347
-77 430 -30 l41 23 54 -33 c85 -52 212 -155 262 -212 25 -29 62 -82 81 -119
160 -306 439 -598 676 -709 131 -61 296 -85 408 -59 42 9 45 8 95 -30 206
-159 433 -181 628 -61 l51 31 51 -32 c115 -73 175 -109 258 -153 78 -42 93
-47 155 -48 85 -1 133 18 195 79 78 77 138 244 138 387 0 30 4 57 9 60 4 3 93
-44 197 -104 193 -113 282 -153 420 -191 217 -59 353 54 354 295 0 95 -23 184
-78 296 -40 83 -59 108 -146 195 -347 345 -671 717 -737 846 l-19 38 53 -5
c65 -6 115 17 140 66 52 101 -31 325 -176 479 -23 24 -251 211 -507 415 -1087
870 -1672 1371 -2143 1836 -299 294 -441 460 -507 590 -17 35 -62 190 -118
410 -203 798 -354 1288 -474 1540 -43 90 -61 115 -125 176 -96 92 -123 130
-123 171 0 28 6 35 38 52 21 11 85 28 143 39 57 11 129 30 160 41 137 52 279
178 348 309 39 75 42 78 117 116 227 116 490 327 552 444 57 106 98 135 325
226 162 66 242 105 318 156 65 45 162 146 188 199 17 32 28 39 93 60 185 59
399 175 533 289 118 101 223 249 256 359 12 41 12 42 143 98 243 105 508 251
680 373 111 80 248 212 301 292 31 47 61 78 98 101 234 147 453 391 575 641
23 47 65 155 93 240 59 174 75 209 134 293 182 256 576 435 1045 475 297 26
369 45 486 133 52 39 76 65 97 106 15 30 27 64 27 76 0 20 7 23 63 29 86 8
196 40 269 77 72 37 150 112 169 162 7 20 20 39 28 41 9 3 57 14 106 26 218
50 499 143 685 225 239 106 417 239 489 367 27 48 35 55 56 50 39 -7 280 18
380 40 202 44 382 120 562 239 202 135 422 382 523 590 l33 66 181 0 c541 2
1020 164 1363 462 90 78 203 204 264 292 l38 57 -49 112 c-28 62 -50 115 -50
119 0 3 35 24 76 46 115 60 338 202 450 285 129 97 283 246 333 324 l41 62
217 27 c485 61 835 164 999 295 111 88 134 216 65 358 -27 54 -58 92 -145 179
-99 98 -263 228 -353 281 -18 10 -33 21 -33 24 0 3 62 18 138 34 417 88 876
218 1027 291 188 90 371 311 391 471 9 73 -15 139 -69 191 -122 119 -298 150
-807 140 -168 -4 -350 -11 -405 -17 -244 -24 -240 -29 -40 48 575 221 935 427
1156 660 138 146 194 262 194 402 -1 120 -51 191 -175 249 -115 54 -198 66
-445 66 -121 0 -240 -3 -265 -7 l-45 -8 53 33 c396 241 751 512 821 627 28 47
28 100 -1 128 -39 36 -105 45 -276 39 -291 -10 -825 -120 -1332 -272 -403
-122 -2421 -705 -2436 -705 -5 0 47 30 116 66 336 178 613 391 728 561 46 68
154 257 207 363 101 201 101 314 -1 356 -42 18 -149 17 -239 -3z"/>
<path d="M55230 15589 c-178 -20 -304 -42 -430 -75 -544 -142 -1022 -475
-1400 -976 -437 -578 -581 -1246 -430 -1991 109 -538 407 -1072 867 -1558 129
-136 144 -164 119 -222 -7 -18 -44 -72 -81 -122 -589 -782 -967 -1706 -1081
-2640 -22 -187 -29 -531 -15 -722 24 -301 77 -576 157 -806 50 -145 182 -405
262 -517 193 -271 440 -447 758 -539 240 -70 591 -76 873 -15 364 78 782 288
1131 568 604 484 1098 1145 1450 1941 227 514 428 1144 561 1757 l42 197 126
-118 c229 -214 486 -408 836 -631 94 -60 268 -173 387 -252 119 -79 362 -237
539 -353 177 -115 340 -227 362 -247 33 -32 38 -41 33 -65 -8 -33 -89 -114
-236 -234 -152 -125 -371 -330 -452 -423 -138 -160 -249 -353 -289 -506 -32
-118 -32 -268 -1 -365 48 -152 171 -314 332 -437 182 -140 510 -248 900 -299
139 -18 549 -15 760 6 216 21 331 49 467 115 129 61 210 118 290 203 156 167
195 421 104 681 -48 137 -175 344 -303 496 -68 79 -556 527 -695 636 -79 62
-123 115 -123 146 0 35 91 114 257 226 334 224 503 329 751 467 127 70 215
151 232 214 30 111 -41 138 -211 81 -155 -52 -597 -284 -1065 -560 -238 -140
-262 -151 -334 -152 -72 -1 -107 17 -336 169 -98 66 -377 247 -619 403 -554
356 -850 566 -1091 772 -183 156 -385 389 -484 558 l-38 65 19 145 c49 387 69
731 69 1188 l0 363 72 97 c255 347 647 718 1086 1029 626 445 1340 782 1982
937 322 78 548 106 852 106 275 0 461 -28 707 -107 400 -127 713 -361 943
-703 85 -127 215 -389 259 -520 33 -102 53 -131 111 -161 52 -27 107 -33 172
-19 110 23 154 93 142 228 -15 189 -93 361 -270 596 -405 540 -948 828 -1741
925 -300 37 -735 16 -1145 -55 -826 -144 -1710 -518 -2411 -1020 -276 -198
-448 -345 -672 -573 -82 -83 -150 -151 -151 -151 -2 0 -7 26 -11 57 -25 202
-114 570 -201 830 -164 492 -448 957 -777 1272 -397 380 -844 595 -1362 657
-130 15 -432 17 -555 3z m400 -263 c711 -85 1374 -638 1716 -1431 197 -458
312 -962 355 -1563 l12 -163 -31 -57 c-110 -208 -200 -498 -233 -747 -16 -119
-5 -372 20 -490 24 -115 74 -268 117 -362 l34 -75 -20 -136 c-27 -183 -73
-427 -121 -647 -255 -1155 -619 -2008 -1172 -2745 -433 -576 -986 -1018 -1496
-1194 -407 -141 -730 -83 -1013 182 -254 239 -406 553 -503 1040 -99 494 -64
1100 101 1771 134 545 367 1082 691 1593 95 151 153 221 199 243 35 16 40 16
98 1 34 -10 126 -49 206 -88 294 -143 591 -238 739 -238 126 1 209 55 197 129
-9 57 -39 76 -226 140 -210 71 -377 145 -541 237 -145 82 -189 119 -189 160 0
37 16 60 107 156 60 64 73 83 73 110 0 39 -23 70 -66 92 -81 40 -164 30 -314
-38 -123 -57 -147 -61 -186 -37 -34 21 -201 230 -329 411 -338 481 -499 970
-497 1510 2 367 72 663 233 980 353 696 1038 1194 1739 1263 81 8 192 6 300
-7z m5126 -7422 c104 -70 400 -329 537 -469 376 -382 513 -706 398 -939 -108
-220 -411 -319 -882 -288 -422 28 -712 133 -895 324 -228 238 -176 549 153
910 144 159 418 403 525 468 48 29 115 27 164 -6z"/>
<path d="M41264 14956 c-57 -18 -130 -70 -165 -119 -85 -116 -177 -366 -220
-597 -123 -661 -245 -1620 -308 -2420 -80 -1008 -91 -1771 -36 -2462 18 -219
18 -228 6 -228 -5 0 -40 -17 -78 -39 -91 -51 -183 -87 -289 -112 -74 -17 -96
-19 -148 -10 -79 14 -148 49 -232 116 -38 31 -98 70 -133 87 -116 58 -283 48
-426 -24 -63 -33 -171 -116 -309 -240 -70 -62 -149 -130 -174 -151 -73 -60
-256 -179 -260 -168 -6 18 70 207 119 297 80 144 199 297 348 444 146 145 206
186 317 214 34 9 82 16 107 16 45 0 87 24 124 70 17 21 16 81 -3 108 -44 64
-189 99 -333 82 -147 -18 -228 -52 -402 -169 -202 -134 -364 -299 -501 -508
-71 -108 -105 -136 -228 -191 -95 -43 -160 -55 -254 -49 -96 6 -159 29 -259
94 -91 60 -245 214 -321 323 -76 108 -99 134 -159 172 -42 27 -61 32 -127 36
-96 6 -161 -14 -212 -64 -61 -58 -65 -100 -34 -344 35 -277 83 -715 95 -879
17 -215 14 -1020 -4 -1176 -24 -202 -53 -293 -90 -279 -7 3 -24 31 -39 63 -47
105 -93 338 -121 611 -9 85 -20 184 -25 220 -16 112 -39 377 -51 585 -15 252
-6 1097 15 1422 74 1140 186 1775 631 3554 182 726 182 727 129 780 -59 58
-199 72 -285 28 -84 -43 -110 -94 -241 -479 -351 -1038 -631 -2745 -708 -4325
-13 -260 -13 -895 0 -1105 33 -541 108 -1023 201 -1288 119 -337 276 -471 538
-460 86 3 105 8 173 40 121 58 194 146 248 300 93 269 125 513 124 958 0 284
-11 488 -41 755 -27 242 -27 259 -8 278 26 26 50 21 149 -32 104 -57 232 -97
339 -107 64 -6 206 6 273 22 21 5 21 4 12 -48 -13 -71 -5 -164 19 -219 67
-149 273 -205 511 -139 78 22 228 93 302 143 64 43 287 224 408 331 165 146
198 157 320 107 144 -60 229 -75 422 -75 252 0 388 28 547 114 41 22 76 40 77
40 2 0 7 -24 10 -52 12 -85 81 -346 121 -454 96 -257 220 -428 375 -516 143
-83 442 -120 656 -83 278 49 607 272 880 599 l79 94 29 -25 c48 -40 124 -74
203 -89 154 -29 485 22 943 147 319 87 695 222 882 315 37 19 69 30 71 26 3
-4 8 -40 11 -81 14 -146 64 -292 138 -398 109 -160 229 -227 433 -243 170 -14
330 14 480 84 171 80 279 187 400 396 27 47 72 108 100 136 41 43 59 54 104
63 57 12 59 12 253 -25 192 -36 382 -42 535 -16 114 20 263 63 379 110 l52 21
11 -62 c25 -131 43 -179 81 -217 72 -72 218 -92 344 -47 85 31 135 73 193 160
108 164 223 308 327 412 152 152 211 175 272 106 14 -16 79 -102 145 -192 136
-186 214 -278 279 -333 62 -51 209 -121 300 -141 100 -23 444 -32 606 -16 347
35 672 145 940 319 102 67 124 98 108 159 -12 48 -47 72 -126 85 -61 11 -70
10 -144 -16 -43 -15 -99 -41 -124 -56 -108 -69 -331 -154 -495 -189 -143 -31
-346 -45 -450 -32 -207 28 -277 83 -485 381 -63 91 -135 185 -160 210 -128
128 -276 178 -490 167 -204 -10 -309 -63 -545 -271 -71 -64 -135 -115 -142
-116 -23 0 -62 61 -74 117 -15 65 -58 127 -109 157 -50 29 -152 27 -217 -5
-68 -34 -93 -86 -93 -195 l0 -81 -102 -48 c-217 -102 -351 -139 -508 -139
-132 0 -190 13 -315 75 -188 91 -208 121 -210 314 -3 202 -27 286 -102 356
-51 47 -75 61 -163 94 -69 26 -86 29 -215 29 -124 0 -147 -3 -200 -23 -102
-40 -165 -121 -165 -213 0 -33 24 -57 99 -97 77 -41 124 -89 160 -163 90 -191
56 -439 -96 -690 -52 -87 -174 -224 -227 -257 -42 -26 -116 -28 -158 -3 -42
24 -97 112 -132 212 -30 82 -31 90 -30 250 0 149 3 173 27 253 45 146 112 263
220 384 31 35 61 72 67 84 27 50 -32 130 -107 146 -53 11 -160 8 -210 -6 -22
-6 -69 -30 -103 -53 -105 -69 -243 -276 -306 -456 -34 -97 -33 -96 -194 -179
-231 -118 -597 -245 -985 -342 -313 -77 -566 -83 -622 -13 -10 12 -12 33 -8
74 16 160 115 341 261 478 147 138 258 192 433 210 124 13 168 26 197 57 37
40 33 93 -11 132 -52 46 -100 55 -285 55 -142 1 -177 -2 -248 -22 -145 -39
-275 -108 -413 -218 -150 -119 -296 -327 -360 -511 -38 -110 -297 -445 -459
-591 -160 -145 -374 -274 -500 -303 -30 -7 -89 -12 -131 -13 -142 0 -243 74
-343 252 -123 221 -156 328 -196 648 l-21 171 56 259 c68 312 148 654 220 944
167 669 340 1441 404 1810 111 630 154 1070 154 1570 1 502 -21 730 -92 978
-63 219 -166 303 -370 301 -47 0 -104 -6 -127 -13z m82 -842 c78 -186 -8
-1501 -167 -2574 -69 -469 -174 -953 -211 -976 -16 -10 -4 586 17 831 31 373
76 855 110 1180 19 182 48 470 65 640 41 413 66 585 130 883 14 62 34 68 56
16z"/>
</g>
</svg>
